<?xml version="1.0" encoding="UTF-8" standalone="no"?>
<!-- Created with Inkscape (http://www.inkscape.org/) -->

<svg
   width="256"
   height="256"
   viewBox="0 0 256 256"
   version="1.1"
   id="svg1"
   xml:space="preserve"
   inkscape:version="1.3 (0e150ed6c4, 2023-07-21)"
   sodipodi:docname="logofacebookvectorizado.svg"
   xmlns:inkscape="http://www.inkscape.org/namespaces/inkscape"
   xmlns:sodipodi="http://sodipodi.sourceforge.net/DTD/sodipodi-0.dtd"
   xmlns="http://www.w3.org/2000/svg"
   xmlns:svg="http://www.w3.org/2000/svg"><sodipodi:namedview
     id="namedview1"
     pagecolor="#ffffff"
     bordercolor="#000000"
     borderopacity="0.25"
     inkscape:showpageshadow="2"
     inkscape:pageopacity="0.0"
     inkscape:pagecheckerboard="0"
     inkscape:deskcolor="#d1d1d1"
     inkscape:document-units="mm"
     inkscape:zoom="1.4142136"
     inkscape:cx="93.691649"
     inkscape:cy="74.599766"
     inkscape:window-width="1920"
     inkscape:window-height="1009"
     inkscape:window-x="1358"
     inkscape:window-y="-8"
     inkscape:window-maximized="1"
     inkscape:current-layer="layer1" /><defs
     id="defs1" /><g
     inkscape:label="Capa 1"
     inkscape:groupmode="layer"
     id="layer1"><rect
       style="fill:#ffffff;fill-opacity:1;stroke-width:0.856242"
       id="rect65536"
       width="266.00565"
       height="264.37585"
       x="-5.3847771"
       y="-3.7989898" /><path
       style="fill:#3a559f;fill-opacity:1;stroke-width:1.96701"
       d="M 2.510155,127.75529 V 2.3598129 H 127.90562 253.30108 V 127.75529 253.15074 H 214.115 174.92891 V 204.65797 156.1652 h 16.43704 16.43702 l 2.31073,-18.36848 c 1.2709,-10.10266 2.51784,-18.91952 2.77102,-19.59305 0.35843,-0.95365 -3.78899,-1.22455 -18.74777,-1.22455 H 174.92891 V 102.1038 c 0,-13.121311 0.24321,-15.37769 2.06255,-19.13598 3.31745,-6.852891 6.87289,-8.113748 22.87956,-8.113748 h 13.26433 V 57.710149 40.566243 h -20.38249 c -18.21254,0 -21.04054,0.22224 -26.56379,2.087466 -11.51483,3.888618 -22.78312,14.808715 -27.16181,26.322438 -1.34562,3.53835 -1.7546,8.710569 -2.07213,26.205693 l -0.3956,21.79728 h -16.57261 -16.5726 v 19.59303 19.59305 h 16.65408 16.65407 v 48.49277 48.49277 H 69.616339 2.510155 Z"
       id="path65536" /></g></svg>
