<?xml version="1.0" encoding="UTF-8" standalone="no"?>
<!-- Created with Inkscape (http://www.inkscape.org/) -->

<svg
   version="1.1"
   id="svg1"
   width="87.360001"
   height="119.99"
   viewBox="0 0 87.36 119.98999"
   sodipodi:docname="logocafecito.svg"
   inkscape:version="1.3 (0e150ed6c4, 2023-07-21)"
   xmlns:inkscape="http://www.inkscape.org/namespaces/inkscape"
   xmlns:sodipodi="http://sodipodi.sourceforge.net/DTD/sodipodi-0.dtd"
   xmlns:xlink="http://www.w3.org/1999/xlink"
   xmlns="http://www.w3.org/2000/svg"
   xmlns:svg="http://www.w3.org/2000/svg">
  <defs
     id="defs1">
    <color-profile
       name="Agfa-:-Swop-Standard"
       xlink:href="../../../WINDOWS/system32/spool/drivers/color/RSWOP.icm"
       id="color-profile2" />
  </defs>
  <sodipodi:namedview
     id="namedview1"
     pagecolor="#ffffff"
     bordercolor="#000000"
     borderopacity="0.25"
     inkscape:showpageshadow="false"
     inkscape:pageopacity="0.0"
     inkscape:pagecheckerboard="false"
     inkscape:deskcolor="#d1d1d1"
     inkscape:zoom="1.4142136"
     inkscape:cx="179.95867"
     inkscape:cy="68.235803"
     inkscape:window-width="1366"
     inkscape:window-height="697"
     inkscape:window-x="1358"
     inkscape:window-y="-8"
     inkscape:window-maximized="1"
     inkscape:current-layer="g1"
     showborder="true"
     borderlayer="false"
     shape-rendering="auto"
     labelstyle="default" />
  <g
     inkscape:groupmode="layer"
     inkscape:label="Image"
     id="g1">
    <path
       d="m 54.821128,5.9282427 c -0.07141,0 -0.108959,0.031968 -0.115386,0.1455608 -0.0045,0.113853 0.01685,0.3096152 0.06956,0.6374586 0.09944,0.623505 0.153761,0.9950666 0.182921,1.3896947 0.02911,0.3946045 0.03341,0.8124042 0.03309,1.5277616 -1.06e-4,1.1019986 -0.01671,1.5472386 -0.08413,2.0350196 -0.127187,0.944558 -0.316958,1.859725 -0.570813,2.748079 -0.253902,0.888355 -0.571947,1.749945 -0.954845,2.586992 -0.382957,0.837047 -0.830781,1.649727 -1.345034,2.440336 -0.514223,0.790582 -1.094629,1.559044 -1.742398,2.308073 -0.483927,0.559565 -1.014683,1.108512 -1.655496,1.705681 -0.640827,0.597141 -1.391865,1.242643 -2.315676,1.994828 -0.390546,0.318001 -0.951612,0.775018 -1.247132,1.01565 -0.812057,0.6613 -3.084291,2.530747 -3.451496,2.839784 -0.178095,0.149714 -0.57365,0.481827 -0.878931,0.737766 -1.136661,0.952974 -2.259332,1.928031 -3.273893,2.840473 -1.014606,0.912413 -1.921073,1.762227 -2.625142,2.464703 -0.780644,0.778865 -1.468285,1.524017 -2.066635,2.240452 -0.598396,0.716406 -1.107425,1.404094 -1.530517,2.069042 -0.423074,0.664932 -0.760138,1.306908 -1.014943,1.931309 -0.127341,0.312208 -0.234178,0.620125 -0.320789,0.924288 -0.08658,0.304087 -0.153331,0.604464 -0.199899,0.901916 -0.0377,0.240171 -0.05363,0.595699 -0.04949,0.953479 0.0045,0.357751 0.02881,0.717831 0.07217,0.967533 0.04567,0.263295 0.114313,0.539629 0.207454,0.832897 0.09317,0.293267 0.210733,0.603268 0.35447,0.933897 0.287431,0.6613 0.679353,1.404905 1.18841,2.260374 0.400766,0.673498 0.917087,1.451214 1.526363,2.301901 0.609277,0.850702 1.311431,1.774349 2.084504,2.739843 0.565632,0.706413 1.314615,1.596775 2.071445,2.469191 0.756829,0.872355 1.52152,1.726741 2.119532,2.361649 0.475606,0.504974 0.897472,0.956955 1.297256,1.390386 0.164241,0.178084 0.839869,0.871072 1.501293,1.539733 0.661469,0.668672 1.211104,1.240944 1.221723,1.271863 0.01532,0.04245 0.02498,0.04281 0.03801,0 0.02099,-0.05672 -0.03693,-0.188155 -0.189202,-0.42967 C 43.00516,62.764754 42.756453,62.41362 42.389124,61.918092 42.009875,61.406384 41.568135,60.747653 40.419354,58.980737 39.738086,57.932883 39.002373,56.68952 38.337242,55.47774 37.67214,54.265961 37.077698,53.085719 36.678664,52.165324 36.32096,51.340287 35.928317,50.253903 35.686386,49.419981 c -0.166771,-0.575058 -0.292641,-1.08669 -0.377121,-1.557593 -0.0846,-0.470917 -0.128108,-0.901027 -0.130405,-1.312717 -0.0015,-0.411721 0.03647,-0.804977 0.115845,-1.202477 0.07953,-0.397516 0.199487,-0.799292 0.360311,-1.227547 0.182078,-0.484632 0.402005,-0.973785 0.66323,-1.473159 0.261195,-0.499357 0.563535,-1.008937 0.911219,-1.5343 0.347681,-0.525255 0.740661,-1.066324 1.182218,-1.628678 0.441509,-0.562355 0.931765,-1.145978 1.47449,-1.756496 0.842705,-0.947963 1.916937,-2.067187 3.518829,-3.650017 1.601879,-1.582815 3.731418,-3.629391 6.684906,-6.432443 0.825954,-0.783891 1.450693,-1.402653 1.961528,-1.949883 0.510805,-0.547183 0.907462,-1.022959 1.277687,-1.520524 0.33343,-0.448037 0.641762,-0.898697 0.925621,-1.353585 0.283905,-0.454889 0.543522,-0.914052 0.779341,-1.378687 0.235695,-0.464619 0.44793,-0.934714 0.637134,-1.411959 0.189202,-0.477248 0.355299,-0.961508 0.499389,-1.454259 0.228953,-0.782694 0.399569,-1.58349 0.512123,-2.401186 0.112626,-0.817671 0.166983,-1.65215 0.162999,-2.502504 -0.0045,-0.85033 -0.06574,-1.716587 -0.185647,-2.597278 C 56.539942,10.193999 56.361696,9.2988526 56.125311,8.3901527 56.001799,7.9152533 55.89061,7.5629164 55.756757,7.2525748 55.622978,6.9422604 55.466552,6.6740379 55.252555,6.3664675 55.017872,6.0291621 54.917669,5.926797 54.821159,5.926797 Z"
       style="fill:#ffffff;stroke-width:0.0462543"
       id="path7" />
    <path
       d="m 66.857915,27.371911 c 0.145727,-0.02238 0.199711,-0.0045 0.216715,0.04673 0.01179,0.0285 -0.393562,0.309235 -0.895069,0.624416 -0.501519,0.315195 -1.043321,0.656273 -1.203878,0.758024 -0.160466,0.101907 -0.502076,0.317985 -0.759377,0.480173 -0.857973,0.540855 -1.844844,1.195398 -2.81987,1.867073 -0.975009,0.671736 -1.938204,1.360465 -2.749801,1.969787 -1.057989,0.794357 -2.009125,1.552566 -2.859,2.280294 -0.849877,0.727731 -1.598782,1.425211 -2.252115,2.098234 -0.653348,0.673055 -1.211212,1.321651 -1.67957,1.951906 -0.468327,0.630284 -0.847116,1.241996 -1.142009,1.841343 -0.272166,0.553144 -0.449142,0.987131 -0.558141,1.404093 -0.109113,0.416946 -0.149713,0.816853 -0.149101,1.301729 6.91e-4,0.391172 0.03309,0.755926 0.116766,1.135513 0.08366,0.379587 0.217721,0.774175 0.421773,1.225479 0.204099,0.451301 0.478119,0.959133 0.840499,1.565545 0.362347,0.606364 0.813127,1.311123 1.371437,2.155926 0.428332,0.648123 0.799429,1.237401 1.121767,1.784998 0.322367,0.547598 0.59596,1.053514 0.829157,1.535266 0.233184,0.481796 0.426128,0.939642 0.58695,1.390377 0.160884,0.450767 0.289712,0.894393 0.394988,1.348806 0.112013,0.484003 0.12872,0.652673 0.130864,1.318238 10e-4,0.420265 -0.01226,0.727568 -0.05806,1.021457 -0.04506,0.293867 -0.121059,0.574308 -0.243435,0.941418 -0.0829,0.248673 -0.220955,0.567414 -0.386375,0.900235 -0.165298,0.332868 -0.358302,0.68004 -0.551291,0.986434 -0.279859,0.444375 -0.634896,0.912793 -1.051353,1.392096 -0.416441,0.479267 -0.894192,0.96943 -1.419187,1.457671 -0.525011,0.48823 -1.09731,0.97449 -1.702924,1.445656 -0.605597,0.471154 -1.244556,0.927285 -1.902792,1.355339 -0.277667,0.180608 -0.477138,0.29781 -0.607267,0.356111 -0.1301,0.05849 -0.190891,0.05778 -0.190891,0.0011 0,-0.02252 0.201172,-0.318882 0.446845,-0.65912 0.727391,-1.007154 1.291921,-1.883179 1.703949,-2.646754 0.205983,-0.381747 0.37381,-0.735286 0.504891,-1.063367 0.131171,-0.328104 0.225199,-0.630584 0.284042,-0.909845 0.05455,-0.258341 0.08152,-0.61207 0.08152,-0.963734 1.22e-4,-0.351701 -0.02637,-0.701172 -0.08061,-0.950398 -0.06406,-0.294403 -0.143278,-0.571258 -0.255556,-0.862453 -0.112473,-0.291191 -0.257715,-0.596826 -0.454397,-0.949341 -0.393394,-0.704985 -0.991607,-1.597206 -1.938528,-2.934593 -0.762422,-1.076792 -1.261397,-1.792722 -1.622182,-2.336229 -0.360829,-0.543521 -0.583426,-0.91474 -0.792732,-1.301743 -0.181021,-0.334536 -0.328713,-0.618655 -0.328713,-0.63165 0,-0.01226 -0.06988,-0.176193 -0.155644,-0.363037 -0.173066,-0.377763 -0.328221,-0.775433 -0.463332,-1.184611 -0.135003,-0.409191 -0.250344,-0.829846 -0.343821,-1.253688 -0.09332,-0.423781 -0.165298,-0.850826 -0.2132,-1.272508 -0.04827,-0.421665 -0.07232,-0.838199 -0.07126,-1.240941 9.96e-4,-0.570153 0.04888,-1.133091 0.143737,-1.690205 0.09486,-0.557127 0.236954,-1.108386 0.426249,-1.654836 0.189203,-0.546462 0.42588,-1.088177 0.71029,-1.626304 0.284426,-0.538142 0.616664,-1.072561 0.997093,-1.604681 0.260827,-0.364861 0.549497,-0.730182 0.865183,-1.094645 0.315672,-0.364446 0.658282,-0.728236 1.027328,-1.090842 0.369013,-0.362594 0.764459,-0.723777 1.185283,-1.082937 0.420838,-0.359221 0.867039,-0.716236 1.338154,-1.070616 0.473247,-0.355927 0.973954,-0.708558 1.499576,-1.056485 0.525624,-0.347898 1.07647,-0.691398 1.649689,-1.029044 1.146377,-0.675198 2.382933,-1.327382 3.690885,-1.947768 1.307952,-0.620369 2.687358,-1.208804 4.118482,-1.756156 1.43115,-0.54734 2.914091,-1.053439 4.430061,-1.509538 0.384058,-0.115551 0.62161,-0.180822 0.767314,-0.2039 z m 7.717355,35.607837 c 0.330745,0.01179 0.660382,0.03762 0.987119,0.08184 0.653519,0.08879 1.295895,0.245205 1.91484,0.464373 0.618933,0.219216 1.214199,0.501732 1.773665,0.842878 0.279721,0.170549 0.550386,0.355662 0.810579,0.555032 0.260169,0.199487 0.509856,0.41283 0.747385,0.639876 0.299024,0.285864 0.565974,0.577967 0.801982,0.878277 0.235937,0.300227 0.441202,0.608863 0.616869,0.928382 0.175573,0.319508 0.321749,0.649864 0.439634,0.993274 0.117804,0.343469 0.207459,0.700146 0.270311,1.072317 0.05672,0.336783 0.08255,0.785025 0.07783,1.227253 -0.0047,0.442134 -0.03903,0.878101 -0.102355,1.19005 -0.08868,0.436072 -0.217718,0.869339 -0.388457,1.30073 -0.170749,0.431403 -0.383173,0.860919 -0.637812,1.290058 -0.254627,0.429174 -0.551789,0.857677 -0.891661,1.286969 -0.339838,0.429339 -0.722716,0.859504 -1.149213,1.291414 -0.336477,0.340722 -0.69662,0.674156 -1.079852,1.00022 -0.38328,0.326005 -0.789365,0.644734 -1.21762,0.955174 -0.428219,0.310368 -0.878442,0.612648 -1.349809,0.906413 -0.471354,0.293766 -0.963923,0.578769 -1.47655,0.854882 -1.025302,0.552249 -2.131297,1.068413 -3.310686,1.544214 -1.179401,0.475788 -2.432279,0.91139 -3.751016,1.30277 -0.377135,0.111907 -0.635772,0.181233 -0.80026,0.212978 -0.164453,0.03184 -0.234947,0.02594 -0.234947,-0.01226 0,-0.02099 0.296584,-0.220961 0.659121,-0.44757 0.892723,-0.558074 1.670331,-1.058721 2.367151,-1.528024 0.696832,-0.469338 1.312734,-0.907403 1.882565,-1.340233 0.569796,-0.43283 1.093602,-0.860554 1.605333,-1.309315 0.511766,-0.448738 1.011729,-0.918335 1.534297,-1.435326 0.432735,-0.428113 0.820661,-0.83533 1.169472,-1.229281 0.348822,-0.393928 0.658578,-0.77466 0.934584,-1.149567 0.275995,-0.374907 0.5183,-0.743942 0.732621,-1.114922 0.214216,-0.370909 0.400543,-0.743729 0.564336,-1.125865 0.190867,-0.445518 0.339531,-0.875176 0.445801,-1.294869 0.106365,-0.419717 0.170526,-0.829612 0.192766,-1.235803 0.02252,-0.406168 0.0011,-0.808527 -0.05861,-1.21348 -0.06132,-0.404906 -0.163604,-0.812289 -0.307432,-1.228233 -0.151093,-0.437287 -0.331925,-0.821628 -0.553664,-1.170167 -0.221716,-0.348552 -0.484468,-0.66122 -0.798905,-0.955858 -0.247151,-0.231468 -0.510103,-0.435471 -0.797147,-0.614476 -0.287091,-0.178922 -0.59792,-0.333163 -0.940776,-0.465742 -0.342856,-0.132543 -0.717621,-0.243413 -1.132091,-0.335568 -0.414434,-0.09198 -0.868549,-0.166127 -1.37041,-0.223968 -0.383786,-0.04446 -1.069451,-0.04104 -1.739998,-0.0071 -0.670559,0.0342 -1.326095,0.100587 -1.650025,0.181021 -0.09563,0.025 -0.161929,0.03408 -0.198638,0.02913 -0.03691,-0.0047 -0.04422,-0.025 -0.02099,-0.05896 0.04611,-0.06957 0.212742,-0.201999 0.505564,-0.404234 0.208921,-0.144359 0.454692,-0.27741 0.731607,-0.398079 0.27689,-0.120586 0.584983,-0.22892 0.919431,-0.322856 0.334496,-0.09422 0.69537,-0.173675 1.077128,-0.238437 0.381782,-0.06439 0.784401,-0.113794 1.203186,-0.145562 0.331571,-0.02523 0.66359,-0.0329 0.994335,-0.02252 z"
       style="fill:#ffffff;stroke-width:0.0462543"
       id="path6" />
    <path
       d="m 30.046873,64.079211 c -0.296271,-9.5e-5 -0.685327,0.02099 -1.049301,0.05979 -1.293883,0.142201 -2.668799,0.362077 -4.03299,0.640925 -1.364174,0.27886 -2.717944,0.616893 -3.969472,0.995043 -0.969694,0.292987 -1.863961,0.587661 -2.676264,0.880978 -0.812302,0.293258 -1.54256,0.585101 -2.184092,0.872747 -0.641579,0.28761 -1.194264,0.570998 -1.651756,0.846969 -0.457479,0.275983 -0.819734,0.54436 -1.07984,0.80269 -0.142207,0.141434 -0.252094,0.267858 -0.330782,0.384694 -0.07861,0.116742 -0.126115,0.223944 -0.142817,0.327314 -0.01671,0.103299 -0.0045,0.202223 0.03939,0.302598 0.04322,0.100233 0.115551,0.202223 0.216969,0.310475 0.149101,0.159417 0.393333,0.318529 0.721631,0.473666 0.328283,0.155007 0.740968,0.306265 1.226843,0.450612 0.485887,0.144347 1.044932,0.281867 1.666865,0.409081 0.621903,0.127331 1.306526,0.244179 2.042944,0.347914 1.528707,0.21523 3.343264,0.412336 5.22995,0.573275 1.886719,0.161092 3.845626,0.28564 5.66308,0.355803 0.381627,0.01533 0.818707,0.03502 0.971333,0.04493 0.152473,0.01179 0.818554,0.03243 1.479977,0.05012 0.661469,0.01686 1.213143,0.04104 1.225846,0.05283 0.02881,0.02594 4.373486,-0.025 4.87997,-0.05625 0.203471,-0.01226 0.994318,-0.05507 1.757537,-0.09339 0.763205,-0.03844 1.523114,-0.08019 1.688459,-0.0921 0.165298,-0.01226 0.602472,-0.04281 0.971332,-0.06863 1.934774,-0.136081 4.10987,-0.332786 6.427984,-0.579772 2.31816,-0.246927 4.779185,-0.544442 7.286335,-0.881661 1.043015,-0.140362 1.95903,-0.264427 2.035373,-0.275795 0.07632,-0.01226 0.419736,-0.0625 0.763175,-0.113794 0.343422,-0.05118 0.83265,-0.122885 1.087072,-0.159205 0.388168,-0.05601 0.660487,-0.09021 0.880294,-0.128558 0.219958,-0.03832 0.387156,-0.08066 0.56502,-0.152472 0.355713,-0.143439 0.753719,-0.40546 1.699808,-0.989512 1.309117,-0.808209 1.951013,-1.204012 2.265532,-1.409265 0.314473,-0.20516 0.30156,-0.219699 0.30156,-0.265865 0,-0.0671 -0.025,-0.08219 -0.104006,-0.06403 -0.127803,0.02948 -2.726503,0.43454 -3.989354,0.622023 -1.373552,0.203886 -2.99083,0.419941 -4.618268,0.618921 -1.627453,0.199075 -3.264898,0.381063 -4.678707,0.517946 -0.661439,0.06391 -1.296489,0.12627 -1.410942,0.138074 -0.432623,0.04457 -1.144386,0.112025 -1.433991,0.135468 -0.165299,0.01226 -0.446338,0.03632 -0.624414,0.05047 -0.178095,0.01533 -0.406925,0.0342 -0.508662,0.04469 -0.101907,0.01179 -0.37249,0.03137 -0.601429,0.04681 -0.228956,0.01533 -0.499297,0.03632 -0.601078,0.04634 -0.101908,0.01179 -0.393363,0.03149 -0.647784,0.04764 -0.254392,0.01686 -0.514454,0.03679 -0.578048,0.04564 -0.06359,0.01179 -0.365519,0.02936 -0.670785,0.04599 -0.305266,0.01686 -0.607207,0.03762 -0.670801,0.04646 -0.06359,0.01179 -0.365151,0.02913 -0.670419,0.04493 -0.305311,0.01533 -0.617504,0.03679 -0.693817,0.04611 -0.07632,0.01179 -0.409437,0.03019 -0.740188,0.04634 -0.330718,0.01533 -0.663843,0.03679 -0.740172,0.04611 -0.505303,0.06191 -3.396023,0.09339 -6.24422,0.09351 -2.848167,2.71e-4 -5.653702,-0.02972 -5.988682,-0.09174 -0.03907,-0.0071 -0.42447,-0.02795 -0.856939,-0.0467 -0.4325,-0.01674 -0.817787,-0.03927 -0.855914,-0.04634 -0.03815,-0.0071 -0.319164,-0.02594 -0.624446,-0.04233 -0.305266,-0.01686 -0.627756,-0.03903 -0.716803,-0.04964 -0.08918,-0.01179 -0.276366,-0.03031 -0.416303,-0.04304 -0.704145,-0.06332 -0.925514,-0.08703 -1.780844,-0.192353 -0.7842,-0.09622 -1.345603,-0.180183 -1.802852,-0.276148 -0.457278,-0.09575 -0.810569,-0.204086 -1.178112,-0.349294 -0.246912,-0.09752 -0.439534,-0.203461 -0.578735,-0.318376 -0.139295,-0.115209 -0.224954,-0.239203 -0.256935,-0.373704 -0.03186,-0.134689 -0.01061,-0.279662 0.06421,-0.43586 0.07463,-0.156258 0.2022,-0.323612 0.382973,-0.503559 0.184176,-0.183521 0.393456,-0.350627 0.659095,-0.522038 0.265653,-0.171575 0.587806,-0.347183 0.998808,-0.54785 0.770222,-0.376074 1.611531,-0.722822 2.65055,-1.084345 1.038971,-0.361511 2.275819,-0.737892 3.836861,-1.172927 0.657361,-0.183355 1.199426,-0.353716 1.204852,-0.379175 0.0077,-0.03986 -0.194446,-0.06038 -0.490793,-0.06038 z"
       style="fill:#ffffff;stroke-width:0.0462543"
       id="path5" />
    <path
       d="m 26.783246,76.387676 c -0.01061,-0.01179 -0.265622,0.03679 -0.567411,0.104478 -0.403538,0.09033 -0.794555,0.202424 -1.166756,0.333469 -0.372201,0.131176 -0.725677,0.281219 -1.054434,0.446898 -0.328788,0.165503 -0.632798,0.347149 -0.906083,0.541294 -0.273302,0.19424 -0.515894,0.400956 -0.721616,0.617554 -0.166355,0.174936 -0.313618,0.367772 -0.438292,0.569087 -0.124582,0.201174 -0.226687,0.411298 -0.302906,0.620349 -0.07617,0.208909 -0.126269,0.417264 -0.147263,0.615454 -0.02098,0.198214 -0.01225,0.386169 0.0285,0.555055 0.03003,0.123806 0.09333,0.270087 0.176408,0.414234 0.08305,0.144065 0.185434,0.286219 0.292977,0.401121 0.15333,0.16404 0.372462,0.329873 0.646068,0.493241 0.273624,0.163179 0.601706,0.324048 0.973723,0.477758 0.372017,0.153757 0.787906,0.300463 1.236496,0.435554 0.448544,0.135161 0.929927,0.258731 1.433286,0.366133 0.824623,0.175974 1.667356,0.330392 2.551266,0.465742 0.883895,0.135291 1.809133,0.251302 2.798209,0.350663 0.989125,0.09952 2.042363,0.18207 3.182566,0.250028 1.140231,0.06792 2.367363,0.121506 3.70463,0.162566 0.903141,0.02771 1.683616,0.05766 1.734504,0.06663 0.285577,0.04988 5.27571,-0.02099 6.168339,-0.08597 1.190432,-0.08856 2.3297,-0.199476 3.443941,-0.337266 1.114197,-0.137615 2.203477,-0.302315 3.293141,-0.498336 1.089709,-0.195926 2.180091,-0.423596 3.296939,-0.687327 1.116878,-0.263672 2.260252,-0.563322 3.455971,-0.903973 0.87818,-0.250205 1.928169,-0.596469 2.064598,-0.680794 0.02912,-0.01686 -0.170539,-0.111554 -0.443779,-0.207659 -0.480357,-0.169064 -0.920611,-0.370816 -1.373201,-0.636103 -0.452543,-0.265276 -0.91727,-0.594123 -1.446662,-1.016976 -0.328742,-0.262646 -0.678632,-0.518653 -0.777593,-0.569147 -0.133624,-0.06816 -0.275232,-0.09811 -0.56053,-0.0816 -0.285301,0.01686 -0.714537,0.07889 -1.423372,0.195502 -1.131405,0.186056 -2.220318,0.353268 -2.746338,0.421781 -2.063341,0.268801 -4.088616,0.491212 -6.027834,0.662894 -1.939248,0.171799 -3.792758,0.292445 -5.512997,0.358587 -0.419736,0.01686 -0.814969,0.03773 -0.878593,0.04764 -0.213461,0.03408 -2.970037,0.08915 -4.347941,0.08703 -1.245139,-0.0011 -2.362186,-0.02252 -3.361499,-0.06663 -0.99933,-0.04304 -1.881049,-0.107544 -2.655715,-0.19444 -0.774635,-0.08691 -1.44228,-0.196563 -2.013384,-0.32939 -0.571105,-0.133003 -1.045592,-0.289449 -1.434296,-0.47093 -0.381517,-0.178085 -0.676563,-0.367006 -0.885475,-0.571151 -0.104501,-0.102238 -0.187532,-0.208296 -0.248918,-0.318388 -0.06145,-0.110256 -0.101908,-0.224451 -0.120598,-0.343811 -0.02099,-0.119383 -0.01685,-0.243684 0.0077,-0.37335 0.02498,-0.129643 0.06835,-0.264745 0.13439,-0.405661 0.132398,-0.281796 0.349061,-0.587378 0.649822,-0.920823 0.169697,-0.188167 0.300256,-0.350568 0.289898,-0.360993 z"
       style="fill:#ffffff;stroke-width:0.0462543"
       id="path4" />
    <path
       d="m 28.916494,88.012681 c -0.301909,0.05271 -0.635999,0.143888 -0.988126,0.268931 -0.352158,0.125044 -0.722657,0.284025 -1.097403,0.471591 -0.403477,0.201999 -0.751297,0.412441 -1.044136,0.631963 -0.292807,0.21944 -0.53045,0.447877 -0.713049,0.685583 -0.182493,0.237682 -0.31017,0.484786 -0.382942,0.741158 -0.07294,0.256349 -0.09058,0.522214 -0.05394,0.797891 0.02712,0.202423 0.09852,0.40829 0.210979,0.613426 0.112474,0.205148 0.265163,0.409387 0.454413,0.608285 0.189203,0.199051 0.41497,0.392359 0.672502,0.57601 0.257534,0.183733 0.546938,0.357596 0.864157,0.516931 0.440331,0.221197 0.958707,0.434292 1.537351,0.635383 0.578673,0.200962 1.217539,0.389942 1.899038,0.561895 0.681496,0.172012 1.405746,0.327031 2.154578,0.460966 0.748815,0.133758 1.522285,0.246667 2.302928,0.333505 0.356172,0.03974 0.710229,0.08078 0.786527,0.09151 0.07632,0.01179 0.294862,0.03231 0.485689,0.04729 0.190674,0.01533 0.429894,0.03679 0.531675,0.04729 0.101907,0.01179 0.372461,0.03184 0.601401,0.0467 0.228952,0.01533 0.478715,0.03538 0.555044,0.04493 0.07632,0.01179 0.430402,0.03137 0.786528,0.04729 0.356202,0.01686 0.698368,0.03797 0.760798,0.04764 0.06252,0.01179 0.582887,0.03148 1.156444,0.04823 0.573586,0.01686 1.047722,0.0342 1.053407,0.03903 0.0377,0.03031 3.077196,-0.04469 3.643503,-0.08997 0.101908,-0.0071 0.403692,-0.02936 0.670818,-0.04729 0.267095,-0.01686 0.516858,-0.03797 0.555014,-0.04469 0.03815,-0.0047 0.225444,-0.02677 0.416286,-0.04434 1.017902,-0.09351 2.240747,-0.268873 3.52844,-0.501118 1.287707,-0.232187 2.640343,-0.521212 3.918613,-0.841852 1.367759,-0.343068 2.917184,-0.776818 4.124687,-1.142374 1.207519,-0.36552 2.072888,-0.662906 2.073163,-0.734 6.2e-5,-0.01533 -0.285943,-0.14726 -0.63574,-0.296053 -0.630485,-0.26787 -1.295079,-0.585739 -1.994522,-0.953464 -0.699456,-0.367655 -1.433637,-0.785261 -2.202986,-1.253303 -0.242683,-0.147425 -0.423352,-0.258436 -0.575319,-0.336924 -0.152165,-0.07865 -0.27546,-0.124737 -0.403247,-0.144501 -0.1278,-0.02099 -0.260028,-0.01226 -0.430001,0.01686 -0.17011,0.02913 -0.377379,0.07971 -0.656013,0.147118 -0.517993,0.125504 -1.086094,0.240689 -1.708073,0.346948 -0.621965,0.106247 -1.298159,0.203249 -2.032279,0.29156 -1.468223,0.176411 -3.168849,0.317916 -5.134513,0.428279 -1.801825,0.101058 -2.749483,0.124123 -5.087762,0.123345 -2.763273,0 -4.08955,-0.03231 -6.313929,-0.150621 -0.743039,-0.0395 -1.409119,-0.117803 -1.988361,-0.23017 -0.579195,-0.112497 -1.071549,-0.259238 -1.466937,-0.43553 -0.197815,-0.08809 -0.371035,-0.183521 -0.518971,-0.286148 -0.148029,-0.102356 -0.270436,-0.211716 -0.366149,-0.327338 -0.09561,-0.115562 -0.164868,-0.237658 -0.205768,-0.365378 -0.04092,-0.127804 -0.05363,-0.261137 -0.03755,-0.399812 0.02835,-0.239935 0.152319,-0.532155 0.348633,-0.820202 0.07293,-0.106836 0.104667,-0.183344 0.09562,-0.228425 -0.01061,-0.04528 -0.05915,-0.05979 -0.150634,-0.0434 z"
       style="fill:#ffffff;stroke-width:0.0462543"
       id="path3" />
    <path
       d="m 19.836275,95.781544 c -0.687014,-0.0047 -1.519818,0.02099 -2.102018,0.0829 -0.847624,0.09198 -1.69071,0.209145 -2.518306,0.348599 -0.827564,0.139442 -1.639496,0.301465 -2.42417,0.483253 -0.784702,0.181669 -1.542376,0.38335 -2.261401,0.602117 -0.7190561,0.218697 -1.3996644,0.454705 -2.0302246,0.705122 -0.5592285,0.222199 -1.0615447,0.454999 -1.5071313,0.698271 -0.4456019,0.243177 -0.8343517,0.49679 -1.1657151,0.760757 -0.3314094,0.264014 -0.605338,0.538417 -0.8219558,0.822607 -0.2167086,0.28425 -0.3757867,0.57834 -0.477061,0.88238 -0.063748,0.19109 -0.097297,0.36877 -0.1005278,0.53685 -0.00153,0.16802 0.025141,0.32633 0.085351,0.47812 0.060376,0.15185 0.1530841,0.29717 0.2792445,0.43928 0.1262689,0.14205 0.2863564,0.281 0.4812154,0.42007 0.2728414,0.19465 0.6058121,0.38125 1.0018729,0.56084 0.396075,0.17954 0.8550717,0.35225 1.3793754,0.51829 0.5242743,0.16593 1.1140597,0.32572 1.7715897,0.47983 0.6575777,0.15397 1.3828097,0.30272 2.1786057,0.44652 0.769303,0.139 2.385434,0.3864 2.890983,0.44237 0.139905,0.0153 0.400304,0.0476 0.578398,0.0711 0.46232,0.0618 0.653562,0.0841 0.994333,0.11521 0.165297,0.0153 0.352678,0.0357 0.416271,0.0464 0.06359,0.0118 0.25093,0.0314 0.416274,0.0461 0.165297,0.0153 0.394573,0.0364 0.509012,0.0482 1.990996,0.20389 6.392679,0.50129 8.880702,0.60007 0.343423,0.0123 0.811736,0.0342 1.040705,0.0459 0.468326,0.025 4.240812,0.11438 5.481369,0.13148 1.246348,0.0167 8.021175,-0.0123 8.4644,-0.0364 0.216235,-0.0123 1.045654,-0.035 1.843046,-0.0507 0.797421,-0.0153 1.49455,-0.0358 1.549393,-0.0443 0.05502,-0.007 0.588833,-0.0279 1.186648,-0.0439 0.597844,-0.0153 1.222612,-0.038 1.387987,-0.049 0.165299,-0.0118 0.581509,-0.0315 0.924947,-0.0458 0.714996,-0.0291 1.165148,-0.0521 2.335906,-0.1178 1.970156,-0.11096 2.280893,-0.13148 4.463376,-0.30122 0.640476,-0.0498 2.380482,-0.20453 2.544048,-0.22644 0.08918,-0.0123 0.286986,-0.0337 0.439641,-0.0485 0.152474,-0.0153 0.4542,-0.0469 0.67045,-0.072 0.216204,-0.025 0.497197,-0.0564 0.624416,-0.0705 1.064578,-0.11663 2.182636,-0.27187 3.310318,-0.45749 1.12768,-0.18544 2.265107,-0.40132 3.369084,-0.6375 1.103967,-0.23617 2.174373,-0.49296 3.167801,-0.76109 0.993427,-0.26815 1.910088,-0.54762 2.706162,-0.82914 0.657812,-0.23271 1.277311,-0.47556 1.853003,-0.72577 0.575691,-0.25017 1.107304,-0.50757 1.589908,-0.76933 0.482616,-0.26185 0.915918,-0.52802 1.294528,-0.79548 0.378609,-0.26749 0.702527,-0.536124 0.966164,-0.803405 0.175372,-0.177471 0.315545,-0.339577 0.422818,-0.491837 0.107309,-0.152319 0.181457,-0.294851 0.224723,-0.433774 0.04304,-0.13884 0.05507,-0.274119 0.03738,-0.411792 -0.01686,-0.137756 -0.06427,-0.278035 -0.138204,-0.426604 -0.08809,-0.176221 -0.231208,-0.373633 -0.397076,-0.557107 -0.165904,-0.183544 -0.354884,-0.352938 -0.535091,-0.473277 -0.190254,-0.12719 -0.300947,-0.189193 -0.346241,-0.184594 -0.04505,0.0047 -0.02547,0.07641 0.04469,0.215973 0.1697,0.338941 0.261101,0.659121 0.27373,0.946919 0.0071,0.143888 -0.0071,0.279591 -0.04033,0.405649 -0.03314,0.126105 -0.0862,0.242411 -0.159005,0.347219 -0.145727,0.209759 -0.347396,0.410248 -0.612754,0.607601 -0.265358,0.197613 -0.594182,0.391487 -0.993628,0.587331 -0.389034,0.190668 -1.021693,0.452718 -1.305553,0.540618 -0.898772,0.27837 -1.720695,0.50435 -2.600694,0.70892 -0.880011,0.20452 -1.818357,0.38781 -2.950047,0.58148 -1.033061,0.17684 -2.211094,0.34802 -3.500283,0.51041 -1.289166,0.16257 -2.689292,0.31602 -4.166603,0.45748 -1.47728,0.14159 -3.031792,0.27098 -4.629226,0.38502 -1.597434,0.11415 -3.237989,0.21249 -4.88754,0.29266 -0.279844,0.0123 -0.685711,0.0347 -0.901961,0.0463 -0.572469,0.0315 -1.109186,0.0544 -4.301542,0.18397 -2.757923,0.11203 -6.126348,0.17725 -9.138986,0.19172 -1.506334,0.007 -2.923652,0.001 -4.131216,-0.0168 -1.207565,-0.021 -2.205622,-0.0513 -2.872776,-0.0979 -1.883162,-0.13085 -3.588935,-0.26549 -5.141686,-0.40737 -1.552733,-0.14176 -2.952429,-0.29102 -4.222914,-0.44991 -1.270468,-0.15878 -2.411665,-0.32775 -3.448079,-0.5097 -1.036382,-0.18208 -1.967995,-0.37702 -2.818483,-0.58805 -0.501795,-0.12458 -0.942738,-0.25392 -1.323705,-0.3888 -0.380997,-0.13484 -0.70191,-0.27514 -0.962736,-0.4207 -0.260843,-0.14559 -0.461783,-0.29639 -0.603146,-0.45306 -0.14144,-0.15648 -0.222963,-0.31893 -0.245673,-0.487024 -0.01532,-0.115563 0.02667,-0.283589 0.107568,-0.46165 0.08061,-0.178084 0.200114,-0.366098 0.338993,-0.522037 0.151247,-0.170314 0.379557,-0.349224 0.669806,-0.530304 0.290203,-0.18102 0.642376,-0.36453 1.042037,-0.543369 0.399722,-0.178957 0.846748,-0.353068 1.326477,-0.516589 0.479745,-0.163604 0.99222,-0.316017 1.522608,-0.451002 1.09806,-0.279391 4.51517,-0.954466 4.831194,-0.954466 0.05118,0 0.09317,-0.02099 0.09317,-0.04304 0,-0.06875 -0.541209,-0.108724 -1.228269,-0.115445 z"
       style="fill:#ffffff;stroke-width:0.0462543"
       id="path2" />
    <path
       d="m 82.981627,102.05806 c 0.04033,0.0404 -0.07488,0.4084 -0.234934,0.75047 -0.104479,0.22298 -0.241432,0.45055 -0.41559,0.68832 -0.174311,0.23768 -0.385461,0.48573 -0.638166,0.75012 -0.304579,0.31863 -0.637058,0.62433 -1.00292,0.92049 -0.365934,0.29617 -0.765109,0.58278 -1.203858,0.86381 -0.438738,0.28108 -0.917003,0.55651 -1.440149,0.82984 -0.523193,0.27334 -1.091337,0.5448 -1.710471,0.81779 -0.689721,0.30414 -1.404053,0.58322 -2.165246,0.84353 -0.761146,0.26034 -1.569319,0.50168 -2.446842,0.72989 -0.877523,0.2282 -1.824348,0.44343 -2.863128,0.65124 -1.038791,0.20765 -2.169432,0.40792 -3.414409,0.60685 -1.632477,0.26093 -4.688496,0.66008 -6.174863,0.80651 -0.139906,0.0153 -0.556409,0.0552 -0.9253,0.0916 -0.368875,0.0368 -0.837157,0.0798 -1.040703,0.0967 -0.203471,0.0169 -0.432363,0.037 -0.508645,0.0456 -0.07632,0.007 -0.326105,0.0285 -0.55506,0.0442 -0.228937,0.0153 -0.489352,0.037 -0.578397,0.047 -0.08918,0.0118 -0.359391,0.032 -0.601064,0.0478 -0.241687,0.0169 -0.512383,0.0364 -0.601399,0.0447 -0.08918,0.007 -0.401256,0.0288 -0.693817,0.0461 -0.292533,0.0169 -0.615054,0.0383 -0.716804,0.047 -0.101908,0.007 -0.445541,0.0291 -0.76351,0.0456 -0.318032,0.0169 -0.682004,0.0381 -0.809253,0.0479 -0.218947,0.0169 -0.551888,0.0328 -2.01202,0.0927 -0.343422,0.0153 -0.874164,0.0366 -1.179462,0.0496 -0.558248,0.025 -6.579782,0.0596 -6.602461,0.0392 -0.0077,-0.005 -0.490945,-0.025 -1.076086,-0.0399 -0.585079,-0.0153 -1.230092,-0.0383 -1.433606,-0.0501 -0.203472,-0.0123 -0.682479,-0.0331 -1.064073,-0.0485 -0.381579,-0.0153 -0.808394,-0.035 -0.948331,-0.0439 -0.139907,-0.0118 -0.472694,-0.0295 -0.739789,-0.0449 -0.267156,-0.0153 -0.548135,-0.0376 -0.624463,-0.0483 -0.07632,-0.0118 -0.378222,-0.0318 -0.670756,-0.0473 -0.292562,-0.0153 -0.594473,-0.0363 -0.670801,-0.0458 -0.07632,-0.0118 -0.284211,-0.0297 -0.462304,-0.0447 -0.610273,-0.0512 -1.256876,-0.1112 -1.526378,-0.14146 -0.101908,-0.0123 -0.476725,-0.0524 -0.83288,-0.0915 -0.82565,-0.0903 -2.368025,-0.28506 -2.728872,-0.34414 -0.15247,-0.025 -0.496078,-0.0791 -0.763157,-0.12014 -1.204178,-0.18522 -2.516604,-0.4321 -3.823498,-0.71649 -1.306894,-0.28439 -2.608456,-0.60624 -3.790505,-0.9404 -0.850399,-0.24044 -1.193684,-0.36447 -1.247102,-0.451 -0.03709,-0.0601 -0.05102,-0.0613 3.004286,0.21272 2.367427,0.21224 4.410661,0.38676 5.94919,0.50869 0.1653,0.0123 1.008309,0.0647 1.873249,0.11545 1.35265,0.0789 2.345606,0.1298 4.92637,0.25318 0.26711,0.0123 0.953956,0.0358 1.526363,0.0512 0.572421,0.0153 1.103148,0.0357 1.179476,0.0456 0.200957,0.0264 4.466532,0.0864 6.174834,0.0864 1.569024,0 4.749165,-0.0495 5.689529,-0.0889 3.723156,-0.15627 5.077402,-0.23421 7.261938,-0.4187 2.375257,-0.20053 4.606486,-0.45271 6.696224,-0.75697 1.044847,-0.15217 2.054402,-0.31741 3.028679,-0.49564 0.974301,-0.1783 1.91352,-0.36942 2.817811,-0.57391 0.904243,-0.20452 1.773488,-0.42242 2.608264,-0.65328 0.834788,-0.23094 1.635355,-0.47494 2.401207,-0.73227 0.765863,-0.25734 1.497257,-0.52803 2.19475,-0.81199 0.697445,-0.28394 1.360764,-0.58092 1.990392,-0.89163 0.667682,-0.32945 1.228775,-0.63045 1.780847,-0.96099 0.552083,-0.33055 1.095217,-0.69092 1.727298,-1.13962 0.465435,-0.33045 0.857099,-0.58994 0.870365,-0.57673 z"
       style="fill:#ffffff;stroke-width:0.0462543"
       id="path1" />
  </g>
</svg>
